<?xml version="1.0" standalone="no"?><!DOCTYPE svg PUBLIC "-//W3C//DTD SVG 1.1//EN" "http://www.w3.org/Graphics/SVG/1.1/DTD/svg11.dtd"><svg t="1592396055644" class="icon" viewBox="0 0 1024 1024" version="1.1" xmlns="http://www.w3.org/2000/svg" p-id="2139" xmlns:xlink="http://www.w3.org/1999/xlink" width="16" height="16"><defs><style type="text/css"></style></defs><path d="M874.058005 149.941995a510.06838 510.06838 0 1 0 109.740156 162.738976 511.396369 511.396369 0 0 0-109.740156-162.738976z" fill="#4D4D4D" p-id="2140"></path><path d="M417.954256 281.533601a41.046923 41.046923 0 0 0-41.77128 40.201839v385.116718a41.892007 41.892007 0 0 0 83.663287 0v-385.116718a41.167649 41.167649 0 0 0-41.892007-40.201839zM606.045744 281.533601a41.046923 41.046923 0 0 0-41.77128 40.201839v385.116718a41.892007 41.892007 0 0 0 83.663287 0v-385.116718a41.167649 41.167649 0 0 0-41.892007-40.201839z" fill="#FFFFFF" p-id="2141"></path></svg>