<?xml version="1.0" standalone="no"?><!DOCTYPE svg PUBLIC "-//W3C//DTD SVG 1.1//EN" "http://www.w3.org/Graphics/SVG/1.1/DTD/svg11.dtd"><svg t="1591772592060" class="icon" viewBox="0 0 1280 1024" version="1.1" xmlns="http://www.w3.org/2000/svg" p-id="1240" xmlns:xlink="http://www.w3.org/1999/xlink" width="250" height="200"><defs><style type="text/css"></style></defs><path d="M42.229507 44.020995l1198.292427 0 0 944.147963-1198.292427 0 0-944.147963Z" fill="#FFFFFF" p-id="1241"></path><path d="M34.807362 39.414146l1206.226444 0 0 948.24294-1206.226444 0 0-948.24294Z" fill="#FFFFFF" p-id="1242"></path><path d="M982.282493 268.988753h108.772807v68.07898h-108.772807z" fill="#EA5D5C" p-id="1243"></path><path d="M471.690141 514.687328m-330.413396 0a330.413397 330.413397 0 1 0 660.826793 0 330.413397 330.413397 0 1 0-660.826793 0Z" fill="#4C66AF" p-id="1244"></path><path d="M1257.925583 56.56186a127.968008 127.968008 0 0 0-106.213447-56.305924h-1023.744064a127.968008 127.968008 0 0 0-127.968008 127.968008v767.808048a127.968008 127.968008 0 0 0 127.968008 127.968008h1023.744064a127.968008 127.968008 0 0 0 127.968008-127.968008v-767.808048a127.968008 127.968008 0 0 0-21.754561-71.662084z m-29.432642 839.470132a76.780805 76.780805 0 0 1-76.780805 76.780805h-1023.744064a76.780805 76.780805 0 0 1-76.780805-76.780805v-767.808048a76.780805 76.780805 0 0 1 76.780805-76.780805h1023.744064a76.780805 76.780805 0 0 1 76.780805 76.780805v767.808048z" fill="#3F4651" p-id="1245"></path><path d="M781.116785 341.930517A358.310422 358.310422 0 0 0 742.470446 284.856786q-11.005249-13.308673-23.034241-25.593602a358.310422 358.310422 0 0 0-506.753312 0q-12.284929 12.284929-23.034241 25.593602a358.310422 358.310422 0 0 0-38.646339 57.073731q-8.189953 15.356161-15.100225 31.224194a358.310422 358.310422 0 0 0 0 278.970258q6.910272 16.123969 15.100225 31.224194a358.310422 358.310422 0 0 0 38.646339 57.073731q11.005249 13.308673 23.034241 25.593602a358.310422 358.310422 0 0 0 506.753312 0q12.284929-12.028993 23.034241-25.593602a358.310422 358.310422 0 0 0 38.646339-57.073731q8.189953-15.356161 15.100225-31.224194a358.310422 358.310422 0 0 0 0-278.970258q-6.910272-16.891777-15.100225-31.224194zM466.059549 819.763059a307.123219 307.123219 0 1 1 307.123219-307.123219A307.123219 307.123219 0 0 1 466.059549 818.995251z" fill="#3F4651" p-id="1246"></path><path d="M534.138529 439.442139a102.374406 102.374406 0 1 0 12.540865 15.100225 102.374406 102.374406 0 0 0-12.540865-15.100225zM461.708637 563.059235a51.187203 51.187203 0 1 1 51.187203-51.187203 51.187203 51.187203 0 0 1-51.187203 51.187203zM1085.424708 220.616846h-20.986753v-43.509123a25.593602 25.593602 0 0 0-51.187204 0v43.509123h-25.593601a51.187203 51.187203 0 0 0-51.187203 51.187203v51.187203a51.187203 51.187203 0 0 0 51.187203 51.187203h25.593601V696.145964a20.474881 20.474881 0 0 1-5.886528 14.332416l-78.316421 78.316421a25.593602 25.593602 0 0 0 36.086978 36.086979l91.625094-92.392902a25.593602 25.593602 0 0 0 7.678081-18.171457v-340.394902h20.986753a51.187203 51.187203 0 0 0 51.187203-51.187203v-51.187203a51.187203 51.187203 0 0 0-51.187203-50.931267z m0 102.374406h-98.791302v-51.187203h98.791302v51.187203z" fill="#3F4651" p-id="1247"></path><path d="M461.708637 511.872032m-52.210947 0a52.210947 52.210947 0 1 0 104.421894 0 52.210947 52.210947 0 1 0-104.421894 0Z" fill="#EA5D5C" p-id="1248"></path></svg>